# xmcd
#
# Track frame offsets: 
#        150
#        14852
#        26195
#        36727
#        50912
#        64177
#        77002
#        92077
#        98770
#        113977
#        126052
#        133177
#        144877
#        154597
#        168952
#        178552
#        189662
#
# Disc length: 2662 seconds
#
# Revision: 1
# Processed by: cddbd v1.5.2PL0 Copyright (c) Steve Scherf et al.
# Submitted via: ExactAudioCopy v0.95b4
#
DISCID=f30a6411
DTITLE=Chuck Brown - Unadorned
DYEAR=1997
DGENRE=New Age
TTITLE0=The Value Of Life
TTITLE1=What Must They Do?
TTITLE2=Grace
TTITLE3=Creed - Lead On
TTITLE4=Nightfall In Pamplona
TTITLE5=Just To Do What I Said
TTITLE6=Stone Heart
TTITLE7=Judgement Day
TTITLE8=Slave To Your Love
TTITLE9=Feeling's Gone Away
TTITLE10=If I Could Show You
TTITLE11=Kigali - Tears For The Children
TTITLE12=The Empty Swing
TTITLE13=Pete And Repeat
TTITLE14=Drawing Down Dark
TTITLE15=Say The Word
TTITLE16=Who Do You Think Will Answer?
EXTD=
EXTT0=
EXTT1=
EXTT2=
EXTT3=
EXTT4=
EXTT5=
EXTT6=
EXTT7=
EXTT8=
EXTT9=
EXTT10=
EXTT11=
EXTT12=
EXTT13=
EXTT14=
EXTT15=
EXTT16=
PLAYORDER=
